<svg width="28" height="11" viewBox="0 0 28 11" fill="none" xmlns="http://www.w3.org/2000/svg">
<path d="M0.808167 2.65369H1.8277C1.8277 1.65173 2.50153 0.989624 3.5152 0.989624C4.51129 0.989624 5.11481 1.65759 5.11481 2.55408C5.11481 3.29822 4.7984 3.73767 3.72028 4.90369L0.860901 7.99744V8.724H6.33356V7.77478H2.32574V7.68103L4.24762 5.6947C5.77106 4.11853 6.19293 3.41541 6.19293 2.44275C6.19293 1.07166 5.06207 0.0697021 3.58551 0.0697021C1.96832 0.0697021 0.808167 1.14783 0.808167 2.65369ZM11.8004 8.724H12.8316V6.97205H14.0328V6.02869H12.8316V0.268921H11.3023C10.1187 2.03259 8.82379 4.09509 7.68121 6.01111V6.97205H11.8004V8.724ZM8.75934 5.96423C9.67926 4.4115 10.7867 2.66541 11.7359 1.24744H11.8062V6.03455H8.75934V5.96423ZM18.7437 2.29626C17.8824 2.29626 17.1265 2.73572 16.7222 3.46228H16.6285V2.40759H15.6675V10.8334H16.6754V7.77478H16.7691C17.1148 8.44275 17.8414 8.83533 18.7437 8.83533C20.3492 8.83533 21.398 7.54041 21.398 5.5658C21.398 3.57947 20.355 2.29626 18.7437 2.29626ZM18.5035 7.92712C17.3668 7.92712 16.6461 7.01306 16.6461 5.5658C16.6461 4.11267 17.3668 3.20447 18.5093 3.20447C19.6636 3.20447 20.355 4.08923 20.355 5.5658C20.355 7.04236 19.6636 7.92712 18.5035 7.92712ZM24.9195 6.35681L26.4136 8.74158H27.6089L25.4351 5.54236L27.5797 2.42517H26.4371L24.9547 4.77478H24.8609L23.3609 2.42517H22.1597L24.3453 5.58337L22.1832 8.74158H23.3257L24.8257 6.35681H24.9195Z" fill="#6A737D"/>
</svg>
