<svg width="27" height="11" viewBox="0 0 27 11" fill="none" xmlns="http://www.w3.org/2000/svg">
<path d="M2.88239 8.724H3.93707V0.268921H2.88824L0.638245 1.88611V2.99939L2.78864 1.4408H2.88239V8.724ZM9.45074 8.91736C11.1851 8.91736 12.4156 7.70447 12.4156 6.00525C12.4156 4.36462 11.2496 3.17517 9.63824 3.17517C8.63043 3.17517 7.80426 3.65564 7.38824 4.47595H7.29449C7.32965 2.17908 8.14996 1.0072 9.55621 1.0072C10.4117 1.0072 11.0328 1.44666 11.2086 2.23181H12.2925C12.0757 0.919312 11.0621 0.0697021 9.52106 0.0697021C7.52301 0.0697021 6.2691 1.73376 6.2691 4.64001C6.2691 7.48767 7.6109 8.91736 9.45074 8.91736ZM9.43903 7.99158C8.35504 7.99158 7.52887 7.13611 7.52887 6.00525C7.52887 4.88611 8.3316 4.08923 9.45074 4.08923C10.5699 4.08923 11.3492 4.88611 11.3492 6.04041C11.3492 7.14783 10.523 7.99158 9.43903 7.99158ZM17.1968 2.29626C16.3355 2.29626 15.5797 2.73572 15.1754 3.46228H15.0816V2.40759H14.1207V10.8334H15.1285V7.77478H15.2222C15.5679 8.44275 16.2945 8.83533 17.1968 8.83533C18.8023 8.83533 19.8511 7.54041 19.8511 5.5658C19.8511 3.57947 18.8082 2.29626 17.1968 2.29626ZM16.9566 7.92712C15.8199 7.92712 15.0992 7.01306 15.0992 5.5658C15.0992 4.11267 15.8199 3.20447 16.9625 3.20447C18.1168 3.20447 18.8082 4.08923 18.8082 5.5658C18.8082 7.04236 18.1168 7.92712 16.9566 7.92712ZM23.3726 6.35681L24.8668 8.74158H26.0621L23.8882 5.54236L26.0328 2.42517H24.8902L23.4078 4.77478H23.314L21.814 2.42517H20.6129L22.7984 5.58337L20.6363 8.74158H21.7789L23.2789 6.35681H23.3726Z" fill="#6A737D"/>
</svg>
