<svg width="28" height="11" viewBox="0 0 28 11" fill="none" xmlns="http://www.w3.org/2000/svg">
<path d="M2.63629 4.82751H3.68512C4.87457 4.82751 5.60699 5.43689 5.60699 6.41541C5.60699 7.36462 4.81598 8.0033 3.7027 8.0033C2.61285 8.0033 1.85114 7.43494 1.75739 6.54431H0.737854C0.814026 7.97986 1.99762 8.92322 3.71442 8.92322C5.39606 8.92322 6.69098 7.86267 6.69098 6.4447C6.69098 5.26697 5.96442 4.52283 4.86871 4.34705V4.2533C5.7359 4.00134 6.36871 3.32751 6.37457 2.30798C6.38043 1.12439 5.41949 0.0697021 3.74957 0.0697021C2.03864 0.0697021 0.989807 1.08337 0.884338 2.46033H1.90973C1.99762 1.51111 2.65973 0.989624 3.67926 0.989624C4.69879 0.989624 5.30231 1.63416 5.30231 2.42517C5.30231 3.30408 4.6109 3.92517 3.63824 3.92517H2.63629V4.82751ZM8.3316 2.65369H9.35114C9.35114 1.65173 10.025 0.989624 11.0386 0.989624C12.0347 0.989624 12.6382 1.65759 12.6382 2.55408C12.6382 3.29822 12.3218 3.73767 11.2437 4.90369L8.38434 7.99744V8.724H13.857V7.77478H9.84918V7.68103L11.7711 5.6947C13.2945 4.11853 13.7164 3.41541 13.7164 2.44275C13.7164 1.07166 12.5855 0.0697021 11.1089 0.0697021C9.49176 0.0697021 8.3316 1.14783 8.3316 2.65369ZM18.7203 2.29626C17.8589 2.29626 17.1031 2.73572 16.6988 3.46228H16.605V2.40759H15.6441V10.8334H16.6519V7.77478H16.7457C17.0914 8.44275 17.8179 8.83533 18.7203 8.83533C20.3257 8.83533 21.3746 7.54041 21.3746 5.5658C21.3746 3.57947 20.3316 2.29626 18.7203 2.29626ZM18.48 7.92712C17.3433 7.92712 16.6226 7.01306 16.6226 5.5658C16.6226 4.11267 17.3433 3.20447 18.4859 3.20447C19.6402 3.20447 20.3316 4.08923 20.3316 5.5658C20.3316 7.04236 19.6402 7.92712 18.48 7.92712ZM24.8961 6.35681L26.3902 8.74158H27.5855L25.4117 5.54236L27.5562 2.42517H26.4136L24.9312 4.77478H24.8375L23.3375 2.42517H22.1363L24.3218 5.58337L22.1597 8.74158H23.3023L24.8023 6.35681H24.8961Z" fill="#6A737D"/>
</svg>
