<svg width="29" height="11" viewBox="0 0 29 11" fill="none" xmlns="http://www.w3.org/2000/svg">
<path d="M3.84918 8.91736C5.58356 8.91736 6.81403 7.70447 6.81403 6.00525C6.81403 4.36462 5.64801 3.17517 4.03668 3.17517C3.02887 3.17517 2.2027 3.65564 1.78668 4.47595H1.69293C1.72809 2.17908 2.5484 1.0072 3.95465 1.0072C4.81012 1.0072 5.43121 1.44666 5.60699 2.23181H6.69098C6.47418 0.919312 5.46051 0.0697021 3.91949 0.0697021C1.92145 0.0697021 0.667542 1.73376 0.667542 4.64001C0.667542 7.48767 2.00934 8.91736 3.84918 8.91736ZM3.83746 7.99158C2.75348 7.99158 1.92731 7.13611 1.92731 6.00525C1.92731 4.88611 2.73004 4.08923 3.84918 4.08923C4.96832 4.08923 5.74762 4.88611 5.74762 6.04041C5.74762 7.14783 4.92145 7.99158 3.83746 7.99158ZM12.3746 8.724H13.4058V6.97205H14.607V6.02869H13.4058V0.268921H11.8765C10.6929 2.03259 9.39801 4.09509 8.25543 6.01111V6.97205H12.3746V8.724ZM9.33356 5.96423C10.2535 4.4115 11.3609 2.66541 12.3101 1.24744H12.3804V6.03455H9.33356V5.96423ZM19.3179 2.29626C18.4566 2.29626 17.7007 2.73572 17.2964 3.46228H17.2027V2.40759H16.2418V10.8334H17.2496V7.77478H17.3433C17.689 8.44275 18.4156 8.83533 19.3179 8.83533C20.9234 8.83533 21.9722 7.54041 21.9722 5.5658C21.9722 3.57947 20.9293 2.29626 19.3179 2.29626ZM19.0777 7.92712C17.941 7.92712 17.2203 7.01306 17.2203 5.5658C17.2203 4.11267 17.941 3.20447 19.0836 3.20447C20.2379 3.20447 20.9293 4.08923 20.9293 5.5658C20.9293 7.04236 20.2379 7.92712 19.0777 7.92712ZM25.4937 6.35681L26.9879 8.74158H28.1832L26.0093 5.54236L28.1539 2.42517H27.0113L25.5289 4.77478H25.4351L23.9351 2.42517H22.7339L24.9195 5.58337L22.7574 8.74158H23.9L25.4 6.35681H25.4937Z" fill="#6A737D"/>
</svg>
