<svg width="29" height="11" viewBox="0 0 29 11" fill="none" xmlns="http://www.w3.org/2000/svg">
<path d="M4.72223 8.724H5.75348V6.97205H6.95465V6.02869H5.75348V0.268921H4.22418C3.04059 2.03259 1.74567 4.09509 0.603088 6.01111V6.97205H4.72223V8.724ZM1.68121 5.96423C2.60114 4.4115 3.70856 2.66541 4.65778 1.24744H4.72809V6.03455H1.68121V5.96423ZM11.4254 8.92322C13.3238 8.92322 14.4136 7.31775 14.4136 4.51111C14.4136 1.71033 13.3062 0.0697021 11.4254 0.0697021C9.53278 0.0697021 8.42535 1.70447 8.42535 4.49353C8.42535 7.30603 9.52106 8.92322 11.4254 8.92322ZM11.4254 8.0033C10.1773 8.0033 9.4859 6.75525 9.4859 4.49353C9.4859 2.26111 10.189 0.995483 11.4254 0.995483C12.6617 0.995483 13.3531 2.24939 13.3531 4.49353C13.3531 6.76111 12.6734 8.0033 11.4254 8.0033ZM19.2242 2.29626C18.3629 2.29626 17.607 2.73572 17.2027 3.46228H17.1089V2.40759H16.148V10.8334H17.1558V7.77478H17.2496C17.5953 8.44275 18.3218 8.83533 19.2242 8.83533C20.8297 8.83533 21.8785 7.54041 21.8785 5.5658C21.8785 3.57947 20.8355 2.29626 19.2242 2.29626ZM18.9839 7.92712C17.8472 7.92712 17.1265 7.01306 17.1265 5.5658C17.1265 4.11267 17.8472 3.20447 18.9898 3.20447C20.1441 3.20447 20.8355 4.08923 20.8355 5.5658C20.8355 7.04236 20.1441 7.92712 18.9839 7.92712ZM25.4 6.35681L26.8941 8.74158H28.0894L25.9156 5.54236L28.0601 2.42517H26.9175L25.4351 4.77478H25.3414L23.8414 2.42517H22.6402L24.8257 5.58337L22.6636 8.74158H23.8062L25.3062 6.35681H25.4Z" fill="#6A737D"/>
</svg>
