<svg width="28" height="11" viewBox="0 0 28 11" fill="none" xmlns="http://www.w3.org/2000/svg">
<path d="M0.808167 2.65369H1.8277C1.8277 1.65173 2.50153 0.989624 3.5152 0.989624C4.51129 0.989624 5.11481 1.65759 5.11481 2.55408C5.11481 3.29822 4.7984 3.73767 3.72028 4.90369L0.860901 7.99744V8.724H6.33356V7.77478H2.32574V7.68103L4.24762 5.6947C5.77106 4.11853 6.19293 3.41541 6.19293 2.44275C6.19293 1.07166 5.06207 0.0697021 3.58551 0.0697021C1.96832 0.0697021 0.808167 1.14783 0.808167 2.65369ZM11.0035 8.92322C12.7964 8.92322 14.0504 7.90955 14.0504 6.46228C14.0504 5.36072 13.3531 4.50525 12.2925 4.30603V4.21228C13.1656 3.97205 13.7047 3.25134 13.7047 2.32556C13.7047 1.0072 12.5855 0.0697021 11.0035 0.0697021C9.42145 0.0697021 8.30231 1.0072 8.30231 2.32556C8.30231 3.24548 8.85309 3.97791 9.71442 4.21228V4.30603C8.65387 4.50525 7.9566 5.36072 7.9566 6.46228C7.9566 7.90955 9.21051 8.92322 11.0035 8.92322ZM11.0035 3.86072C10.0074 3.86072 9.33942 3.2865 9.33942 2.42517C9.33942 1.55212 10.0015 0.972046 11.0035 0.972046C12.0054 0.972046 12.6675 1.55212 12.6675 2.42517C12.6675 3.2865 11.9996 3.86072 11.0035 3.86072ZM11.0035 8.02087C9.8316 8.02087 9.02301 7.35291 9.02301 6.38611C9.02301 5.41931 9.8316 4.75134 11.0035 4.75134C12.1754 4.75134 12.9839 5.41931 12.9839 6.38611C12.9839 7.35291 12.1754 8.02087 11.0035 8.02087ZM18.8609 2.29626C17.9996 2.29626 17.2437 2.73572 16.8394 3.46228H16.7457V2.40759H15.7847V10.8334H16.7925V7.77478H16.8863C17.232 8.44275 17.9586 8.83533 18.8609 8.83533C20.4664 8.83533 21.5152 7.54041 21.5152 5.5658C21.5152 3.57947 20.4722 2.29626 18.8609 2.29626ZM18.6207 7.92712C17.4839 7.92712 16.7632 7.01306 16.7632 5.5658C16.7632 4.11267 17.4839 3.20447 18.6265 3.20447C19.7808 3.20447 20.4722 4.08923 20.4722 5.5658C20.4722 7.04236 19.7808 7.92712 18.6207 7.92712ZM25.0367 6.35681L26.5308 8.74158H27.7261L25.5523 5.54236L27.6968 2.42517H26.5543L25.0718 4.77478H24.9781L23.4781 2.42517H22.2769L24.4625 5.58337L22.3004 8.74158H23.4429L24.9429 6.35681H25.0367Z" fill="#6A737D"/>
</svg>
