<svg width="29" height="11" viewBox="0 0 29 11" fill="none" xmlns="http://www.w3.org/2000/svg">
<path d="M4.72223 8.724H5.75348V6.97205H6.95465V6.02869H5.75348V0.268921H4.22418C3.04059 2.03259 1.74567 4.09509 0.603088 6.01111V6.97205H4.72223V8.724ZM1.68121 5.96423C2.60114 4.4115 3.70856 2.66541 4.65778 1.24744H4.72809V6.03455H1.68121V5.96423ZM11.4722 8.92322C13.2652 8.92322 14.5191 7.90955 14.5191 6.46228C14.5191 5.36072 13.8218 4.50525 12.7613 4.30603V4.21228C13.6343 3.97205 14.1734 3.25134 14.1734 2.32556C14.1734 1.0072 13.0543 0.0697021 11.4722 0.0697021C9.8902 0.0697021 8.77106 1.0072 8.77106 2.32556C8.77106 3.24548 9.32184 3.97791 10.1832 4.21228V4.30603C9.12262 4.50525 8.42535 5.36072 8.42535 6.46228C8.42535 7.90955 9.67926 8.92322 11.4722 8.92322ZM11.4722 3.86072C10.4761 3.86072 9.80817 3.2865 9.80817 2.42517C9.80817 1.55212 10.4703 0.972046 11.4722 0.972046C12.4742 0.972046 13.1363 1.55212 13.1363 2.42517C13.1363 3.2865 12.4683 3.86072 11.4722 3.86072ZM11.4722 8.02087C10.3004 8.02087 9.49176 7.35291 9.49176 6.38611C9.49176 5.41931 10.3004 4.75134 11.4722 4.75134C12.6441 4.75134 13.4527 5.41931 13.4527 6.38611C13.4527 7.35291 12.6441 8.02087 11.4722 8.02087ZM19.3297 2.29626C18.4683 2.29626 17.7125 2.73572 17.3082 3.46228H17.2144V2.40759H16.2535V10.8334H17.2613V7.77478H17.355C17.7007 8.44275 18.4273 8.83533 19.3297 8.83533C20.9351 8.83533 21.9839 7.54041 21.9839 5.5658C21.9839 3.57947 20.941 2.29626 19.3297 2.29626ZM19.0894 7.92712C17.9527 7.92712 17.232 7.01306 17.232 5.5658C17.232 4.11267 17.9527 3.20447 19.0953 3.20447C20.2496 3.20447 20.941 4.08923 20.941 5.5658C20.941 7.04236 20.2496 7.92712 19.0894 7.92712ZM25.5054 6.35681L26.9996 8.74158H28.1949L26.0211 5.54236L28.1656 2.42517H27.023L25.5406 4.77478H25.4468L23.9468 2.42517H22.7457L24.9312 5.58337L22.7691 8.74158H23.9117L25.4117 6.35681H25.5054Z" fill="#6A737D"/>
</svg>
