<svg width="28" height="11" viewBox="0 0 28 11" fill="none" xmlns="http://www.w3.org/2000/svg">
<path d="M0.808167 2.65369H1.8277C1.8277 1.65173 2.50153 0.989624 3.5152 0.989624C4.51129 0.989624 5.11481 1.65759 5.11481 2.55408C5.11481 3.29822 4.7984 3.73767 3.72028 4.90369L0.860901 7.99744V8.724H6.33356V7.77478H2.32574V7.68103L4.24762 5.6947C5.77106 4.11853 6.19293 3.41541 6.19293 2.44275C6.19293 1.07166 5.06207 0.0697021 3.58551 0.0697021C1.96832 0.0697021 0.808167 1.14783 0.808167 2.65369ZM10.9566 8.92322C12.855 8.92322 13.9449 7.31775 13.9449 4.51111C13.9449 1.71033 12.8375 0.0697021 10.9566 0.0697021C9.06403 0.0697021 7.9566 1.70447 7.9566 4.49353C7.9566 7.30603 9.05231 8.92322 10.9566 8.92322ZM10.9566 8.0033C9.70856 8.0033 9.01715 6.75525 9.01715 4.49353C9.01715 2.26111 9.72028 0.995483 10.9566 0.995483C12.1929 0.995483 12.8843 2.24939 12.8843 4.49353C12.8843 6.76111 12.2047 8.0033 10.9566 8.0033ZM18.7554 2.29626C17.8941 2.29626 17.1382 2.73572 16.7339 3.46228H16.6402V2.40759H15.6793V10.8334H16.6871V7.77478H16.7808C17.1265 8.44275 17.8531 8.83533 18.7554 8.83533C20.3609 8.83533 21.4097 7.54041 21.4097 5.5658C21.4097 3.57947 20.3668 2.29626 18.7554 2.29626ZM18.5152 7.92712C17.3785 7.92712 16.6578 7.01306 16.6578 5.5658C16.6578 4.11267 17.3785 3.20447 18.5211 3.20447C19.6754 3.20447 20.3668 4.08923 20.3668 5.5658C20.3668 7.04236 19.6754 7.92712 18.5152 7.92712ZM24.9312 6.35681L26.4254 8.74158H27.6207L25.4468 5.54236L27.5914 2.42517H26.4488L24.9664 4.77478H24.8726L23.3726 2.42517H22.1714L24.357 5.58337L22.1949 8.74158H23.3375L24.8375 6.35681H24.9312Z" fill="#6A737D"/>
</svg>
